<svg width="71" height="71" viewBox="0 0 71 71" fill="none" xmlns="http://www.w3.org/2000/svg">
<path d="M64.9947 54.2262C64.9947 55.2912 64.758 56.3858 64.2551 57.4508C63.7522 58.5158 63.1013 59.5216 62.2434 60.4683C60.7938 62.0658 59.1963 63.2195 57.3917 63.9591C55.6167 64.6987 53.6938 65.0833 51.623 65.0833C48.6055 65.0833 45.3809 64.3733 41.9788 62.9237C38.5767 61.4741 35.1747 59.5216 31.8022 57.0662C28.4001 54.5812 25.1755 51.83 22.0988 48.7829C19.0517 45.7062 16.3005 42.4816 13.8451 39.1091C11.4192 35.7366 9.46675 32.3641 8.04675 29.0212C6.62675 25.6487 5.91675 22.4241 5.91675 19.3475C5.91675 17.3358 6.27175 15.4129 6.98175 13.6379C7.69175 11.8333 8.81591 10.1766 10.3838 8.69746C12.2772 6.83371 14.348 5.91663 16.5372 5.91663C17.3655 5.91663 18.1938 6.09413 18.9334 6.44913C19.7026 6.80413 20.383 7.33663 20.9155 8.10579L27.7788 17.7795C28.3113 18.5191 28.6959 19.1995 28.9622 19.8504C29.2284 20.4716 29.3763 21.0929 29.3763 21.655C29.3763 22.365 29.1692 23.075 28.7551 23.7554C28.3705 24.4358 27.8084 25.1458 27.0984 25.8558L24.8501 28.1929C24.5247 28.5183 24.3767 28.9029 24.3767 29.3762C24.3767 29.6129 24.4063 29.82 24.4655 30.0566C24.5542 30.2933 24.643 30.4708 24.7022 30.6483C25.2347 31.6245 26.1517 32.8966 27.4534 34.435C28.7847 35.9733 30.2047 37.5412 31.743 39.1091C33.3405 40.677 34.8788 42.1266 36.4467 43.4579C37.9851 44.7595 39.2572 45.647 40.263 46.1795C40.4109 46.2387 40.5884 46.3275 40.7955 46.4162C41.0322 46.505 41.2688 46.5345 41.5351 46.5345C42.038 46.5345 42.4226 46.357 42.748 46.0316L44.9963 43.8129C45.7359 43.0733 46.4459 42.5112 47.1263 42.1562C47.8067 41.742 48.4872 41.535 49.2267 41.535C49.7888 41.535 50.3805 41.6533 51.0313 41.9195C51.6822 42.1858 52.3626 42.5704 53.1022 43.0733L62.8942 50.0254C63.6634 50.5579 64.1959 51.1791 64.5213 51.9187C64.8172 52.6583 64.9947 53.3979 64.9947 54.2262Z" stroke="#00ADB5" stroke-width="1.5" stroke-miterlimit="10"/>
</svg>
