<svg width="421" height="100" viewBox="0 0 421 100" fill="none" xmlns="http://www.w3.org/2000/svg">
<path d="M2.31 59.36C2.31 54.5067 3.36 50.19 5.46 46.41C7.56 42.5833 10.4767 39.62 14.21 37.52C17.99 35.3733 22.26 34.3 27.02 34.3C32.8533 34.3 37.8467 35.84 42 38.92C46.1533 42 48.93 46.2 50.33 51.52H37.17C36.19 49.4667 34.79 47.9033 32.97 46.83C31.1967 45.7567 29.1667 45.22 26.88 45.22C23.1933 45.22 20.2067 46.5033 17.92 49.07C15.6333 51.6367 14.49 55.0667 14.49 59.36C14.49 63.6533 15.6333 67.0833 17.92 69.65C20.2067 72.2167 23.1933 73.5 26.88 73.5C29.1667 73.5 31.1967 72.9633 32.97 71.89C34.79 70.8167 36.19 69.2533 37.17 67.2H50.33C48.93 72.52 46.1533 76.72 42 79.8C37.8467 82.8333 32.8533 84.35 27.02 84.35C22.26 84.35 17.99 83.3 14.21 81.2C10.4767 79.0533 7.56 76.09 5.46 72.31C3.36 68.53 2.31 64.2133 2.31 59.36ZM75.4403 84.56C71.6136 84.56 68.1603 83.7433 65.0803 82.11C62.047 80.4767 59.6436 78.1433 57.8703 75.11C56.1436 72.0767 55.2803 68.53 55.2803 64.47C55.2803 60.4567 56.167 56.9333 57.9403 53.9C59.7136 50.82 62.1403 48.4633 65.2203 46.83C68.3003 45.1967 71.7536 44.38 75.5803 44.38C79.407 44.38 82.8603 45.1967 85.9403 46.83C89.0203 48.4633 91.447 50.82 93.2203 53.9C94.9936 56.9333 95.8803 60.4567 95.8803 64.47C95.8803 68.4833 94.9703 72.03 93.1503 75.11C91.377 78.1433 88.927 80.4767 85.8003 82.11C82.7203 83.7433 79.267 84.56 75.4403 84.56ZM75.4403 74.2C77.727 74.2 79.6636 73.36 81.2503 71.68C82.8836 70 83.7003 67.5967 83.7003 64.47C83.7003 61.3433 82.907 58.94 81.3203 57.26C79.7803 55.58 77.867 54.74 75.5803 54.74C73.247 54.74 71.3103 55.58 69.7703 57.26C68.2303 58.8933 67.4603 61.2967 67.4603 64.47C67.4603 67.5967 68.207 70 69.7003 71.68C71.2403 73.36 73.1536 74.2 75.4403 74.2ZM126.031 44.52C130.604 44.52 134.244 46.0133 136.951 49C139.704 51.94 141.081 56 141.081 61.18V84H129.181V62.79C129.181 60.1767 128.504 58.1467 127.151 56.7C125.797 55.2533 123.977 54.53 121.691 54.53C119.404 54.53 117.584 55.2533 116.231 56.7C114.877 58.1467 114.201 60.1767 114.201 62.79V84H102.231V44.94H114.201V50.12C115.414 48.3933 117.047 47.04 119.101 46.06C121.154 45.0333 123.464 44.52 126.031 44.52ZM171.169 73.85V84H165.079C160.739 84 157.355 82.95 154.929 80.85C152.502 78.7033 151.289 75.2267 151.289 70.42V54.88H146.529V44.94H151.289V35.42H163.259V44.94H171.099V54.88H163.259V70.56C163.259 71.7267 163.539 72.5667 164.099 73.08C164.659 73.5933 165.592 73.85 166.899 73.85H171.169ZM175.456 64.4C175.456 60.3867 176.203 56.8633 177.696 53.83C179.236 50.7967 181.313 48.4633 183.926 46.83C186.539 45.1967 189.456 44.38 192.676 44.38C195.429 44.38 197.833 44.94 199.886 46.06C201.986 47.18 203.596 48.65 204.716 50.47V44.94H216.686V84H204.716V78.47C203.549 80.29 201.916 81.76 199.816 82.88C197.763 84 195.359 84.56 192.606 84.56C189.433 84.56 186.539 83.7433 183.926 82.11C181.313 80.43 179.236 78.0733 177.696 75.04C176.203 71.96 175.456 68.4133 175.456 64.4ZM204.716 64.47C204.716 61.4833 203.876 59.1267 202.196 57.4C200.563 55.6733 198.556 54.81 196.176 54.81C193.796 54.81 191.766 55.6733 190.086 57.4C188.453 59.08 187.636 61.4133 187.636 64.4C187.636 67.3867 188.453 69.7667 190.086 71.54C191.766 73.2667 193.796 74.13 196.176 74.13C198.556 74.13 200.563 73.2667 202.196 71.54C203.876 69.8133 204.716 67.4567 204.716 64.47ZM222.966 64.47C222.966 60.41 223.783 56.8633 225.416 53.83C227.096 50.7967 229.406 48.4633 232.346 46.83C235.333 45.1967 238.739 44.38 242.566 44.38C247.466 44.38 251.549 45.6633 254.816 48.23C258.129 50.7967 260.299 54.4133 261.326 59.08H248.586C247.513 56.0933 245.436 54.6 242.356 54.6C240.163 54.6 238.413 55.4633 237.106 57.19C235.799 58.87 235.146 61.2967 235.146 64.47C235.146 67.6433 235.799 70.0933 237.106 71.82C238.413 73.5 240.163 74.34 242.356 74.34C245.436 74.34 247.513 72.8467 248.586 69.86H261.326C260.299 74.4333 258.129 78.0267 254.816 80.64C251.503 83.2533 247.419 84.56 242.566 84.56C238.739 84.56 235.333 83.7433 232.346 82.11C229.406 80.4767 227.096 78.1433 225.416 75.11C223.783 72.0767 222.966 68.53 222.966 64.47ZM289.499 73.85V84H283.409C279.069 84 275.685 82.95 273.259 80.85C270.832 78.7033 269.619 75.2267 269.619 70.42V54.88H264.859V44.94H269.619V35.42H281.589V44.94H289.429V54.88H281.589V70.56C281.589 71.7267 281.869 72.5667 282.429 73.08C282.989 73.5933 283.922 73.85 285.229 73.85H289.499ZM337.594 34.86V64.26C337.594 67.2 338.317 69.4633 339.764 71.05C341.211 72.6367 343.334 73.43 346.134 73.43C348.934 73.43 351.081 72.6367 352.574 71.05C354.067 69.4633 354.814 67.2 354.814 64.26V34.86H366.784V64.19C366.784 68.5767 365.851 72.2867 363.984 75.32C362.117 78.3533 359.597 80.64 356.424 82.18C353.297 83.72 349.797 84.49 345.924 84.49C342.051 84.49 338.574 83.7433 335.494 82.25C332.461 80.71 330.057 78.4233 328.284 75.39C326.511 72.31 325.624 68.5767 325.624 64.19V34.86H337.594ZM391.08 84.56C387.673 84.56 384.64 83.9767 381.98 82.81C379.32 81.6433 377.22 80.0567 375.68 78.05C374.14 75.9967 373.276 73.71 373.09 71.19H384.92C385.06 72.5433 385.69 73.64 386.81 74.48C387.93 75.32 389.306 75.74 390.94 75.74C392.433 75.74 393.576 75.46 394.37 74.9C395.21 74.2933 395.63 73.5233 395.63 72.59C395.63 71.47 395.046 70.6533 393.88 70.14C392.713 69.58 390.823 68.9733 388.21 68.32C385.41 67.6667 383.076 66.99 381.21 66.29C379.343 65.5433 377.733 64.4 376.38 62.86C375.026 61.2733 374.35 59.15 374.35 56.49C374.35 54.25 374.956 52.22 376.17 50.4C377.43 48.5333 379.25 47.0633 381.63 45.99C384.056 44.9167 386.926 44.38 390.24 44.38C395.14 44.38 398.99 45.5933 401.79 48.02C404.636 50.4467 406.27 53.6667 406.69 57.68H395.63C395.443 56.3267 394.836 55.2533 393.81 54.46C392.83 53.6667 391.523 53.27 389.89 53.27C388.49 53.27 387.416 53.55 386.67 54.11C385.923 54.6233 385.55 55.3467 385.55 56.28C385.55 57.4 386.133 58.24 387.3 58.8C388.513 59.36 390.38 59.92 392.9 60.48C395.793 61.2267 398.15 61.9733 399.97 62.72C401.79 63.42 403.376 64.5867 404.73 66.22C406.13 67.8067 406.853 69.9533 406.9 72.66C406.9 74.9467 406.246 77 404.94 78.82C403.68 80.5933 401.836 81.9933 399.41 83.02C397.03 84.0467 394.253 84.56 391.08 84.56Z" fill="#00ADB5"/>
<path d="M5.31 52.36C5.31 47.5067 6.36 43.19 8.46 39.41C10.56 35.5833 13.4767 32.62 17.21 30.52C20.99 28.3733 25.26 27.3 30.02 27.3C35.8533 27.3 40.8467 28.84 45 31.92C49.1533 35 51.93 39.2 53.33 44.52H40.17C39.19 42.4667 37.79 40.9033 35.97 39.83C34.1967 38.7567 32.1667 38.22 29.88 38.22C26.1933 38.22 23.2067 39.5033 20.92 42.07C18.6333 44.6367 17.49 48.0667 17.49 52.36C17.49 56.6533 18.6333 60.0833 20.92 62.65C23.2067 65.2167 26.1933 66.5 29.88 66.5C32.1667 66.5 34.1967 65.9633 35.97 64.89C37.79 63.8167 39.19 62.2533 40.17 60.2H53.33C51.93 65.52 49.1533 69.72 45 72.8C40.8467 75.8333 35.8533 77.35 30.02 77.35C25.26 77.35 20.99 76.3 17.21 74.2C13.4767 72.0533 10.56 69.09 8.46 65.31C6.36 61.53 5.31 57.2133 5.31 52.36ZM78.4403 77.56C74.6136 77.56 71.1603 76.7433 68.0803 75.11C65.047 73.4767 62.6436 71.1433 60.8703 68.11C59.1436 65.0767 58.2803 61.53 58.2803 57.47C58.2803 53.4567 59.167 49.9333 60.9403 46.9C62.7136 43.82 65.1403 41.4633 68.2203 39.83C71.3003 38.1967 74.7536 37.38 78.5803 37.38C82.407 37.38 85.8603 38.1967 88.9403 39.83C92.0203 41.4633 94.447 43.82 96.2203 46.9C97.9936 49.9333 98.8803 53.4567 98.8803 57.47C98.8803 61.4833 97.9703 65.03 96.1503 68.11C94.377 71.1433 91.927 73.4767 88.8003 75.11C85.7203 76.7433 82.267 77.56 78.4403 77.56ZM78.4403 67.2C80.727 67.2 82.6636 66.36 84.2503 64.68C85.8836 63 86.7003 60.5967 86.7003 57.47C86.7003 54.3433 85.907 51.94 84.3203 50.26C82.7803 48.58 80.867 47.74 78.5803 47.74C76.247 47.74 74.3103 48.58 72.7703 50.26C71.2303 51.8933 70.4603 54.2967 70.4603 57.47C70.4603 60.5967 71.207 63 72.7003 64.68C74.2403 66.36 76.1536 67.2 78.4403 67.2ZM129.031 37.52C133.604 37.52 137.244 39.0133 139.951 42C142.704 44.94 144.081 49 144.081 54.18V77H132.181V55.79C132.181 53.1767 131.504 51.1467 130.151 49.7C128.797 48.2533 126.977 47.53 124.691 47.53C122.404 47.53 120.584 48.2533 119.231 49.7C117.877 51.1467 117.201 53.1767 117.201 55.79V77H105.231V37.94H117.201V43.12C118.414 41.3933 120.047 40.04 122.101 39.06C124.154 38.0333 126.464 37.52 129.031 37.52ZM174.169 66.85V77H168.079C163.739 77 160.355 75.95 157.929 73.85C155.502 71.7033 154.289 68.2267 154.289 63.42V47.88H149.529V37.94H154.289V28.42H166.259V37.94H174.099V47.88H166.259V63.56C166.259 64.7267 166.539 65.5667 167.099 66.08C167.659 66.5933 168.592 66.85 169.899 66.85H174.169ZM178.456 57.4C178.456 53.3867 179.203 49.8633 180.696 46.83C182.236 43.7967 184.313 41.4633 186.926 39.83C189.539 38.1967 192.456 37.38 195.676 37.38C198.429 37.38 200.833 37.94 202.886 39.06C204.986 40.18 206.596 41.65 207.716 43.47V37.94H219.686V77H207.716V71.47C206.549 73.29 204.916 74.76 202.816 75.88C200.763 77 198.359 77.56 195.606 77.56C192.433 77.56 189.539 76.7433 186.926 75.11C184.313 73.43 182.236 71.0733 180.696 68.04C179.203 64.96 178.456 61.4133 178.456 57.4ZM207.716 57.47C207.716 54.4833 206.876 52.1267 205.196 50.4C203.563 48.6733 201.556 47.81 199.176 47.81C196.796 47.81 194.766 48.6733 193.086 50.4C191.453 52.08 190.636 54.4133 190.636 57.4C190.636 60.3867 191.453 62.7667 193.086 64.54C194.766 66.2667 196.796 67.13 199.176 67.13C201.556 67.13 203.563 66.2667 205.196 64.54C206.876 62.8133 207.716 60.4567 207.716 57.47ZM225.966 57.47C225.966 53.41 226.783 49.8633 228.416 46.83C230.096 43.7967 232.406 41.4633 235.346 39.83C238.333 38.1967 241.739 37.38 245.566 37.38C250.466 37.38 254.549 38.6633 257.816 41.23C261.129 43.7967 263.299 47.4133 264.326 52.08H251.586C250.513 49.0933 248.436 47.6 245.356 47.6C243.163 47.6 241.413 48.4633 240.106 50.19C238.799 51.87 238.146 54.2967 238.146 57.47C238.146 60.6433 238.799 63.0933 240.106 64.82C241.413 66.5 243.163 67.34 245.356 67.34C248.436 67.34 250.513 65.8467 251.586 62.86H264.326C263.299 67.4333 261.129 71.0267 257.816 73.64C254.503 76.2533 250.419 77.56 245.566 77.56C241.739 77.56 238.333 76.7433 235.346 75.11C232.406 73.4767 230.096 71.1433 228.416 68.11C226.783 65.0767 225.966 61.53 225.966 57.47ZM292.499 66.85V77H286.409C282.069 77 278.685 75.95 276.259 73.85C273.832 71.7033 272.619 68.2267 272.619 63.42V47.88H267.859V37.94H272.619V28.42H284.589V37.94H292.429V47.88H284.589V63.56C284.589 64.7267 284.869 65.5667 285.429 66.08C285.989 66.5933 286.922 66.85 288.229 66.85H292.499ZM340.594 27.86V57.26C340.594 60.2 341.317 62.4633 342.764 64.05C344.211 65.6367 346.334 66.43 349.134 66.43C351.934 66.43 354.081 65.6367 355.574 64.05C357.067 62.4633 357.814 60.2 357.814 57.26V27.86H369.784V57.19C369.784 61.5767 368.851 65.2867 366.984 68.32C365.117 71.3533 362.597 73.64 359.424 75.18C356.297 76.72 352.797 77.49 348.924 77.49C345.051 77.49 341.574 76.7433 338.494 75.25C335.461 73.71 333.057 71.4233 331.284 68.39C329.511 65.31 328.624 61.5767 328.624 57.19V27.86H340.594ZM394.08 77.56C390.673 77.56 387.64 76.9767 384.98 75.81C382.32 74.6433 380.22 73.0567 378.68 71.05C377.14 68.9967 376.276 66.71 376.09 64.19H387.92C388.06 65.5433 388.69 66.64 389.81 67.48C390.93 68.32 392.306 68.74 393.94 68.74C395.433 68.74 396.576 68.46 397.37 67.9C398.21 67.2933 398.63 66.5233 398.63 65.59C398.63 64.47 398.046 63.6533 396.88 63.14C395.713 62.58 393.823 61.9733 391.21 61.32C388.41 60.6667 386.076 59.99 384.21 59.29C382.343 58.5433 380.733 57.4 379.38 55.86C378.026 54.2733 377.35 52.15 377.35 49.49C377.35 47.25 377.956 45.22 379.17 43.4C380.43 41.5333 382.25 40.0633 384.63 38.99C387.056 37.9167 389.926 37.38 393.24 37.38C398.14 37.38 401.99 38.5933 404.79 41.02C407.636 43.4467 409.27 46.6667 409.69 50.68H398.63C398.443 49.3267 397.836 48.2533 396.81 47.46C395.83 46.6667 394.523 46.27 392.89 46.27C391.49 46.27 390.416 46.55 389.67 47.11C388.923 47.6233 388.55 48.3467 388.55 49.28C388.55 50.4 389.133 51.24 390.3 51.8C391.513 52.36 393.38 52.92 395.9 53.48C398.793 54.2267 401.15 54.9733 402.97 55.72C404.79 56.42 406.376 57.5867 407.73 59.22C409.13 60.8067 409.853 62.9533 409.9 65.66C409.9 67.9467 409.246 70 407.94 71.82C406.68 73.5933 404.836 74.9933 402.41 76.02C400.03 77.0467 397.253 77.56 394.08 77.56Z" fill="#D3D7E3"/>
</svg>
