<svg width="374" height="97" viewBox="0 0 374 97" fill="none" xmlns="http://www.w3.org/2000/svg">
<path d="M27.58 81.49C22.96 81.49 18.7133 80.4167 14.84 78.27C11.0133 76.1233 7.95667 73.1367 5.67 69.31C3.43 65.4367 2.31 61.0967 2.31 56.29C2.31 51.4833 3.43 47.1667 5.67 43.34C7.95667 39.5133 11.0133 36.5267 14.84 34.38C18.7133 32.2333 22.96 31.16 27.58 31.16C32.2 31.16 36.4233 32.2333 40.25 34.38C44.1233 36.5267 47.1567 39.5133 49.35 43.34C51.59 47.1667 52.71 51.4833 52.71 56.29C52.71 61.0967 51.59 65.4367 49.35 69.31C47.11 73.1367 44.0767 76.1233 40.25 78.27C36.4233 80.4167 32.2 81.49 27.58 81.49ZM27.58 70.57C31.5 70.57 34.6267 69.2633 36.96 66.65C39.34 64.0367 40.53 60.5833 40.53 56.29C40.53 51.95 39.34 48.4967 36.96 45.93C34.6267 43.3167 31.5 42.01 27.58 42.01C23.6133 42.01 20.44 43.2933 18.06 45.86C15.7267 48.4267 14.56 51.9033 14.56 56.29C14.56 60.63 15.7267 64.1067 18.06 66.72C20.44 69.2867 23.6133 70.57 27.58 70.57ZM97.9393 41.94V81H85.9693V75.68C84.756 77.4067 83.0993 78.8067 80.9993 79.88C78.946 80.9067 76.6593 81.42 74.1393 81.42C71.1526 81.42 68.516 80.7667 66.2293 79.46C63.9426 78.1067 62.1693 76.17 60.9093 73.65C59.6493 71.13 59.0193 68.1667 59.0193 64.76V41.94H70.9193V63.15C70.9193 65.7633 71.596 67.7933 72.9493 69.24C74.3026 70.6867 76.1226 71.41 78.4093 71.41C80.7426 71.41 82.586 70.6867 83.9393 69.24C85.2926 67.7933 85.9693 65.7633 85.9693 63.15V41.94H97.9393ZM118.507 48.45C119.907 46.3033 121.657 44.6233 123.757 43.41C125.857 42.15 128.191 41.52 130.757 41.52V54.19H127.467C124.481 54.19 122.241 54.8433 120.747 56.15C119.254 57.41 118.507 59.65 118.507 62.87V81H106.537V41.94H118.507V48.45ZM186.663 31.86V41.45H173.643V81H161.673V41.45H148.653V31.86H186.663ZM229.49 60.84C229.49 61.96 229.42 63.1267 229.28 64.34H202.19C202.377 66.7667 203.147 68.6333 204.5 69.94C205.9 71.2 207.603 71.83 209.61 71.83C212.597 71.83 214.673 70.57 215.84 68.05H228.58C227.927 70.6167 226.737 72.9267 225.01 74.98C223.33 77.0333 221.207 78.6433 218.64 79.81C216.073 80.9767 213.203 81.56 210.03 81.56C206.203 81.56 202.797 80.7433 199.81 79.11C196.823 77.4767 194.49 75.1433 192.81 72.11C191.13 69.0767 190.29 65.53 190.29 61.47C190.29 57.41 191.107 53.8633 192.74 50.83C194.42 47.7967 196.753 45.4633 199.74 43.83C202.727 42.1967 206.157 41.38 210.03 41.38C213.81 41.38 217.17 42.1733 220.11 43.76C223.05 45.3467 225.337 47.61 226.97 50.55C228.65 53.49 229.49 56.92 229.49 60.84ZM217.24 57.69C217.24 55.6367 216.54 54.0033 215.14 52.79C213.74 51.5767 211.99 50.97 209.89 50.97C207.883 50.97 206.18 51.5533 204.78 52.72C203.427 53.8867 202.587 55.5433 202.26 57.69H217.24ZM233.425 61.4C233.425 57.3867 234.172 53.8633 235.665 50.83C237.205 47.7967 239.282 45.4633 241.895 43.83C244.508 42.1967 247.425 41.38 250.645 41.38C253.398 41.38 255.802 41.94 257.855 43.06C259.955 44.18 261.565 45.65 262.685 47.47V41.94H274.655V81H262.685V75.47C261.518 77.29 259.885 78.76 257.785 79.88C255.732 81 253.328 81.56 250.575 81.56C247.402 81.56 244.508 80.7433 241.895 79.11C239.282 77.43 237.205 75.0733 235.665 72.04C234.172 68.96 233.425 65.4133 233.425 61.4ZM262.685 61.47C262.685 58.4833 261.845 56.1267 260.165 54.4C258.532 52.6733 256.525 51.81 254.145 51.81C251.765 51.81 249.735 52.6733 248.055 54.4C246.422 56.08 245.605 58.4133 245.605 61.4C245.605 64.3867 246.422 66.7667 248.055 68.54C249.735 70.2667 251.765 71.13 254.145 71.13C256.525 71.13 258.532 70.2667 260.165 68.54C261.845 66.8133 262.685 64.4567 262.685 61.47ZM333.155 41.52C338.008 41.52 341.858 42.99 344.705 45.93C347.598 48.87 349.045 52.9533 349.045 58.18V81H337.145V59.79C337.145 57.27 336.468 55.3333 335.115 53.98C333.808 52.58 331.988 51.88 329.655 51.88C327.321 51.88 325.478 52.58 324.125 53.98C322.818 55.3333 322.165 57.27 322.165 59.79V81H310.265V59.79C310.265 57.27 309.588 55.3333 308.235 53.98C306.928 52.58 305.108 51.88 302.775 51.88C300.441 51.88 298.598 52.58 297.245 53.98C295.938 55.3333 295.285 57.27 295.285 59.79V81H283.315V41.94H295.285V46.84C296.498 45.2067 298.085 43.9233 300.045 42.99C302.005 42.01 304.221 41.52 306.695 41.52C309.635 41.52 312.248 42.15 314.535 43.41C316.868 44.67 318.688 46.4667 319.995 48.8C321.348 46.6533 323.191 44.9033 325.525 43.55C327.858 42.1967 330.401 41.52 333.155 41.52Z" fill="#00ADB5"/>
<path d="M31.58 77.49C26.96 77.49 22.7133 76.4167 18.84 74.27C15.0133 72.1233 11.9567 69.1367 9.67 65.31C7.43 61.4367 6.31 57.0967 6.31 52.29C6.31 47.4833 7.43 43.1667 9.67 39.34C11.9567 35.5133 15.0133 32.5267 18.84 30.38C22.7133 28.2333 26.96 27.16 31.58 27.16C36.2 27.16 40.4233 28.2333 44.25 30.38C48.1233 32.5267 51.1567 35.5133 53.35 39.34C55.59 43.1667 56.71 47.4833 56.71 52.29C56.71 57.0967 55.59 61.4367 53.35 65.31C51.11 69.1367 48.0767 72.1233 44.25 74.27C40.4233 76.4167 36.2 77.49 31.58 77.49ZM31.58 66.57C35.5 66.57 38.6267 65.2633 40.96 62.65C43.34 60.0367 44.53 56.5833 44.53 52.29C44.53 47.95 43.34 44.4967 40.96 41.93C38.6267 39.3167 35.5 38.01 31.58 38.01C27.6133 38.01 24.44 39.2933 22.06 41.86C19.7267 44.4267 18.56 47.9033 18.56 52.29C18.56 56.63 19.7267 60.1067 22.06 62.72C24.44 65.2867 27.6133 66.57 31.58 66.57ZM101.939 37.94V77H89.9693V71.68C88.756 73.4067 87.0993 74.8067 84.9993 75.88C82.946 76.9067 80.6593 77.42 78.1393 77.42C75.1526 77.42 72.516 76.7667 70.2293 75.46C67.9426 74.1067 66.1693 72.17 64.9093 69.65C63.6493 67.13 63.0193 64.1667 63.0193 60.76V37.94H74.9193V59.15C74.9193 61.7633 75.596 63.7933 76.9493 65.24C78.3026 66.6867 80.1226 67.41 82.4093 67.41C84.7426 67.41 86.586 66.6867 87.9393 65.24C89.2926 63.7933 89.9693 61.7633 89.9693 59.15V37.94H101.939ZM122.507 44.45C123.907 42.3033 125.657 40.6233 127.757 39.41C129.857 38.15 132.191 37.52 134.757 37.52V50.19H131.467C128.481 50.19 126.241 50.8433 124.747 52.15C123.254 53.41 122.507 55.65 122.507 58.87V77H110.537V37.94H122.507V44.45ZM190.663 27.86V37.45H177.643V77H165.673V37.45H152.653V27.86H190.663ZM233.49 56.84C233.49 57.96 233.42 59.1267 233.28 60.34H206.19C206.377 62.7667 207.147 64.6333 208.5 65.94C209.9 67.2 211.603 67.83 213.61 67.83C216.597 67.83 218.673 66.57 219.84 64.05H232.58C231.927 66.6167 230.737 68.9267 229.01 70.98C227.33 73.0333 225.207 74.6433 222.64 75.81C220.073 76.9767 217.203 77.56 214.03 77.56C210.203 77.56 206.797 76.7433 203.81 75.11C200.823 73.4767 198.49 71.1433 196.81 68.11C195.13 65.0767 194.29 61.53 194.29 57.47C194.29 53.41 195.107 49.8633 196.74 46.83C198.42 43.7967 200.753 41.4633 203.74 39.83C206.727 38.1967 210.157 37.38 214.03 37.38C217.81 37.38 221.17 38.1733 224.11 39.76C227.05 41.3467 229.337 43.61 230.97 46.55C232.65 49.49 233.49 52.92 233.49 56.84ZM221.24 53.69C221.24 51.6367 220.54 50.0033 219.14 48.79C217.74 47.5767 215.99 46.97 213.89 46.97C211.883 46.97 210.18 47.5533 208.78 48.72C207.427 49.8867 206.587 51.5433 206.26 53.69H221.24ZM237.425 57.4C237.425 53.3867 238.172 49.8633 239.665 46.83C241.205 43.7967 243.282 41.4633 245.895 39.83C248.508 38.1967 251.425 37.38 254.645 37.38C257.398 37.38 259.802 37.94 261.855 39.06C263.955 40.18 265.565 41.65 266.685 43.47V37.94H278.655V77H266.685V71.47C265.518 73.29 263.885 74.76 261.785 75.88C259.732 77 257.328 77.56 254.575 77.56C251.402 77.56 248.508 76.7433 245.895 75.11C243.282 73.43 241.205 71.0733 239.665 68.04C238.172 64.96 237.425 61.4133 237.425 57.4ZM266.685 57.47C266.685 54.4833 265.845 52.1267 264.165 50.4C262.532 48.6733 260.525 47.81 258.145 47.81C255.765 47.81 253.735 48.6733 252.055 50.4C250.422 52.08 249.605 54.4133 249.605 57.4C249.605 60.3867 250.422 62.7667 252.055 64.54C253.735 66.2667 255.765 67.13 258.145 67.13C260.525 67.13 262.532 66.2667 264.165 64.54C265.845 62.8133 266.685 60.4567 266.685 57.47ZM337.155 37.52C342.008 37.52 345.858 38.99 348.705 41.93C351.598 44.87 353.045 48.9533 353.045 54.18V77H341.145V55.79C341.145 53.27 340.468 51.3333 339.115 49.98C337.808 48.58 335.988 47.88 333.655 47.88C331.321 47.88 329.478 48.58 328.125 49.98C326.818 51.3333 326.165 53.27 326.165 55.79V77H314.265V55.79C314.265 53.27 313.588 51.3333 312.235 49.98C310.928 48.58 309.108 47.88 306.775 47.88C304.441 47.88 302.598 48.58 301.245 49.98C299.938 51.3333 299.285 53.27 299.285 55.79V77H287.315V37.94H299.285V42.84C300.498 41.2067 302.085 39.9233 304.045 38.99C306.005 38.01 308.221 37.52 310.695 37.52C313.635 37.52 316.248 38.15 318.535 39.41C320.868 40.67 322.688 42.4667 323.995 44.8C325.348 42.6533 327.191 40.9033 329.525 39.55C331.858 38.1967 334.401 37.52 337.155 37.52Z" fill="#D3D7E3"/>
</svg>
