<svg width="412" height="325" viewBox="0 0 412 325" fill="none" xmlns="http://www.w3.org/2000/svg">
<g clip-path="url(#clip0_628_613)">
<path d="M75.1181 38.3321C74.344 38.4176 73.598 38.6718 72.9327 39.0768C72.2674 39.4819 71.699 40.0279 71.2676 40.6764C70.8361 41.325 70.552 42.0603 70.4353 42.8305C70.3186 43.6008 70.3722 44.3873 70.5922 45.1346L55.1895 56.1446L64.3707 59.6789L77.5899 48.6817C78.8204 48.2287 79.8421 47.3399 80.4613 46.1838C81.0805 45.0276 81.2542 43.6844 80.9495 42.4087C80.6448 41.133 79.8829 40.0134 78.8082 39.2621C77.7334 38.5107 76.4204 38.1798 75.1181 38.3321Z" fill="#FFB8B8"/>
<path d="M73.6857 54.9163L54.58 74.1461C51.9616 76.7645 48.5089 78.3825 44.8219 78.7192L21.2135 80.8739C20.3481 80.9565 19.4748 80.8647 18.6454 80.6039C17.8159 80.3432 17.0472 79.9188 16.3845 79.3558C15.4677 78.5882 14.7859 77.5775 14.4176 76.4398C14.0492 75.302 14.0092 74.0834 14.302 72.924C14.5949 71.7645 15.2088 70.7112 16.0732 69.885C16.9376 69.0588 18.0174 68.4933 19.1887 68.2534L43.3072 63.1164L65.2654 46.9253C65.5706 46.7535 65.9155 46.6644 66.2658 46.667C66.6161 46.6697 66.9596 46.7638 67.2623 46.9402L73.2337 51.8335C73.593 52.0304 73.8816 52.3349 74.0591 52.7043C74.2365 53.0737 74.2939 53.4893 74.2232 53.893C74.1535 54.2813 73.9658 54.6386 73.6857 54.9163Z" fill="#2F2E41"/>
<path d="M302.751 65.2506C302.893 63.9379 302.628 62.6132 301.991 61.4565C301.354 60.2999 300.377 59.3675 299.192 58.7859L180.289 0.653809C179.533 0.283771 178.712 0.0663289 177.872 0.0139046C177.031 -0.0385198 176.189 0.0750958 175.393 0.348266C174.597 0.621437 173.862 1.04881 173.231 1.60599C172.6 2.16317 172.085 2.83923 171.715 3.59559L171.713 3.60006L127.117 94.8723C126.372 96.4011 126.264 98.1628 126.816 99.771C127.369 101.379 128.536 102.703 130.062 103.452L248.964 161.584C250.492 162.328 252.254 162.436 253.861 161.884C255.469 161.332 256.792 160.164 257.541 158.638L302.137 67.3655C302.463 66.7015 302.671 65.9858 302.751 65.2506Z" fill="#F2F2F2"/>
<path d="M233.093 267.83H78.8116C76.8692 267.828 75.007 267.055 73.6336 265.681C72.2601 264.307 71.4875 262.444 71.4854 260.501V50.9926C71.4875 49.0496 72.2601 47.1868 73.6336 45.8129C75.007 44.4391 76.8692 43.6662 78.8116 43.6641H233.093C235.036 43.6662 236.898 44.4391 238.271 45.8129C239.645 47.1868 240.417 49.0496 240.42 50.9926V260.501C240.417 262.444 239.645 264.307 238.271 265.681C236.898 267.055 235.036 267.828 233.093 267.83Z" fill="white"/>
<path d="M119.732 106.137C125.291 106.137 129.798 101.63 129.798 96.0687C129.798 90.5079 125.291 86 119.732 86C114.173 86 109.667 90.5079 109.667 96.0687C109.667 101.63 114.173 106.137 119.732 106.137Z" fill="#E6E6E6"/>
<path d="M104.391 123.588C105.813 124.397 107.302 125.083 108.841 125.639L109.112 125.733C112.212 126.822 115.473 127.376 118.758 127.372C119.419 127.372 120.055 127.349 120.65 127.304C122.097 127.215 123.536 127.017 124.953 126.71C125.731 126.54 126.507 126.337 127.257 126.107C127.438 126.053 127.606 126.001 127.79 125.943C130.848 124.951 133.721 123.462 136.294 121.535C136.088 121.144 135.861 120.764 135.617 120.396C134.294 118.374 132.487 116.714 130.361 115.566C128.235 114.418 125.857 113.819 123.441 113.822H118.143C115.349 113.822 112.614 114.626 110.263 116.138C107.913 117.649 106.046 119.805 104.885 122.347C104.7 122.752 104.535 123.166 104.391 123.588Z" fill="#E6E6E6"/>
<path d="M123.148 126.459C122.81 126.484 122.485 126.599 122.205 126.79C123.625 126.702 125.037 126.506 126.428 126.204L123.148 126.459Z" fill="#2F2E41"/>
<path d="M120.342 68.7456C113.859 68.7463 107.558 70.8876 102.416 74.8372C97.2747 78.7868 93.5802 84.3239 91.9064 90.5888C90.2325 96.8537 90.6729 103.496 93.1593 109.485C95.6456 115.474 100.039 120.474 105.657 123.71C107.148 124.574 108.714 125.303 110.335 125.888L110.61 125.984C113.737 127.082 117.028 127.641 120.342 127.637C120.983 127.637 121.624 127.616 122.255 127.568C123.714 127.478 125.164 127.278 126.593 126.969C127.394 126.794 128.178 126.588 128.919 126.36C129.099 126.307 129.269 126.254 129.454 126.196C136.117 124.025 141.787 119.548 145.446 113.569C149.104 107.591 150.511 100.503 149.413 93.5801C148.315 86.6571 144.784 80.353 139.455 75.8008C134.127 71.2486 127.35 68.747 120.342 68.7456ZM137.422 120.25C134.882 122.21 132.024 123.718 128.972 124.707C128.808 124.76 128.638 124.813 128.469 124.865C127.764 125.083 127.023 125.274 126.26 125.438C124.908 125.733 123.535 125.924 122.154 126.01C121.555 126.053 120.946 126.074 120.342 126.074C117.205 126.076 114.09 125.547 111.13 124.51L110.87 124.42C109.258 123.841 107.704 123.11 106.229 122.237C101.093 119.213 97.0628 114.62 94.7298 109.134C92.3967 103.648 91.8842 97.5588 93.2674 91.7601C94.6507 85.9614 97.8569 80.7594 102.415 76.9185C106.973 73.0776 112.642 70.8004 118.59 70.4215C124.537 70.0426 130.45 71.5819 135.458 74.8133C140.466 78.0448 144.306 82.7979 146.414 88.3742C148.521 93.9506 148.785 100.056 147.167 105.794C145.548 111.531 142.133 116.598 137.422 120.25Z" fill="#CCCCCC"/>
<path d="M233.093 267.83H78.8116C76.8692 267.828 75.007 267.055 73.6336 265.681C72.2601 264.307 71.4875 262.444 71.4854 260.501V50.9926C71.4875 49.0496 72.2601 47.1868 73.6336 45.8129C75.007 44.4391 76.8692 43.6662 78.8116 43.6641H233.093C235.036 43.6662 236.898 44.4391 238.271 45.8129C239.645 47.1868 240.417 49.0496 240.42 50.9926V260.501C240.417 262.444 239.645 264.307 238.271 265.681C236.898 267.055 235.036 267.828 233.093 267.83ZM78.8116 44.5262C77.0977 44.5282 75.4546 45.2101 74.2428 46.4223C73.0309 47.6346 72.3492 49.2782 72.3473 50.9926V260.501C72.3492 262.216 73.0309 263.859 74.2428 265.072C75.4546 266.284 77.0977 266.966 78.8116 266.968H233.093C234.807 266.966 236.45 266.284 237.662 265.072C238.874 263.859 239.556 262.216 239.558 260.501V50.9926C239.556 49.2782 238.874 47.6346 237.662 46.4223C236.45 45.2101 234.807 44.5282 233.093 44.5262L78.8116 44.5262Z" fill="#CCCCCC"/>
<path d="M203.226 98.0775H159.57C158.654 98.0775 157.775 97.7136 157.128 97.0657C156.48 96.4178 156.116 95.539 156.116 94.6228C156.116 93.7065 156.48 92.8277 157.128 92.1799C157.775 91.532 158.654 91.168 159.57 91.168H203.226C204.142 91.168 205.021 91.532 205.669 92.1799C206.316 92.8277 206.68 93.7065 206.68 94.6228C206.68 95.539 206.316 96.4178 205.669 97.0657C205.021 97.7136 204.142 98.0775 203.226 98.0775Z" fill="#E6E6E6"/>
<path d="M217.473 109.738H159.57C158.654 109.738 157.775 109.374 157.128 108.726C156.48 108.078 156.116 107.199 156.116 106.283C156.116 105.367 156.48 104.488 157.128 103.84C157.775 103.192 158.654 102.828 159.57 102.828H217.473C218.389 102.828 219.267 103.192 219.915 103.84C220.563 104.488 220.927 105.367 220.927 106.283C220.927 107.199 220.563 108.078 219.915 108.726C219.267 109.374 218.389 109.738 217.473 109.738Z" fill="#E6E6E6"/>
<path d="M203.163 154.458H94.4322C93.5163 154.458 92.6378 154.094 91.9901 153.447C91.3424 152.799 90.9785 151.92 90.9785 151.004C90.9785 150.087 91.3424 149.209 91.9901 148.561C92.6378 147.913 93.5163 147.549 94.4322 147.549H203.163C204.079 147.549 204.957 147.913 205.605 148.561C206.253 149.209 206.617 150.087 206.617 151.004C206.617 151.92 206.253 152.799 205.605 153.447C204.957 154.094 204.079 154.458 203.163 154.458Z" fill="#E6E6E6"/>
<path d="M217.409 166.118H94.4322C93.5163 166.118 92.6378 165.754 91.9901 165.106C91.3424 164.458 90.9785 163.58 90.9785 162.663C90.9785 161.747 91.3424 160.868 91.9901 160.22C92.6378 159.572 93.5163 159.208 94.4322 159.208H217.409C218.325 159.208 219.204 159.572 219.852 160.22C220.499 160.868 220.863 161.747 220.863 162.663C220.863 163.58 220.499 164.458 219.852 165.106C219.204 165.754 218.325 166.118 217.409 166.118Z" fill="#E6E6E6"/>
<path d="M203.163 192.917H94.4322C93.5163 192.917 92.6378 192.553 91.9901 191.905C91.3424 191.257 90.9785 190.378 90.9785 189.462C90.9785 188.546 91.3424 187.667 91.9901 187.019C92.6378 186.371 93.5163 186.007 94.4322 186.007H203.163C204.079 186.007 204.957 186.371 205.605 187.019C206.253 187.667 206.617 188.546 206.617 189.462C206.617 190.378 206.253 191.257 205.605 191.905C204.957 192.553 204.079 192.917 203.163 192.917Z" fill="#E6E6E6"/>
<path d="M217.409 204.577H94.4322C93.5163 204.577 92.6378 204.213 91.9901 203.565C91.3424 202.917 90.9785 202.039 90.9785 201.122C90.9785 200.206 91.3424 199.327 91.9901 198.679C92.6378 198.031 93.5163 197.667 94.4322 197.667H217.409C218.325 197.667 219.204 198.031 219.852 198.679C220.499 199.327 220.863 200.206 220.863 201.122C220.863 202.039 220.499 202.917 219.852 203.565C219.204 204.213 218.325 204.577 217.409 204.577Z" fill="#E6E6E6"/>
<path d="M203.163 231.376H94.4322C93.5162 231.376 92.6378 231.012 91.9901 230.364C91.3424 229.716 90.9785 228.837 90.9785 227.921C90.9785 227.005 91.3424 226.126 91.9901 225.478C92.6378 224.83 93.5162 224.466 94.4322 224.466H203.163C204.079 224.466 204.957 224.83 205.605 225.478C206.253 226.126 206.617 227.005 206.617 227.921C206.617 228.837 206.253 229.716 205.605 230.364C204.957 231.012 204.079 231.376 203.163 231.376Z" fill="#E6E6E6"/>
<path d="M217.41 243.036H94.4322C93.5163 243.036 92.6378 242.672 91.9901 242.024C91.3424 241.376 90.9785 240.498 90.9785 239.581C90.9785 238.665 91.3424 237.786 91.9901 237.138C92.6378 236.49 93.5163 236.126 94.4322 236.126H217.41C218.325 236.128 219.202 236.492 219.849 237.14C220.496 237.788 220.859 238.666 220.859 239.581C220.859 240.497 220.496 241.375 219.849 242.023C219.202 242.67 218.325 243.035 217.41 243.036Z" fill="#E6E6E6"/>
<path d="M297.453 125.133C297.596 123.82 297.33 122.495 296.694 121.339C296.057 120.182 295.079 119.25 293.894 118.668L174.992 60.5361C174.236 60.1661 173.414 59.9487 172.574 59.8962C171.734 59.8438 170.892 59.9574 170.096 60.2306C169.299 60.5038 168.565 60.9311 167.934 61.4883C167.303 62.0455 166.787 62.7216 166.417 63.4779L166.415 63.4824L121.819 154.755C121.075 156.283 120.967 158.045 121.519 159.653C122.071 161.262 123.238 162.585 124.764 163.334L243.667 221.466C245.195 222.211 246.956 222.319 248.564 221.766C250.172 221.214 251.495 220.047 252.244 218.52L296.84 127.248C297.166 126.584 297.373 125.868 297.453 125.133Z" fill="white"/>
<path d="M297.453 125.133C297.596 123.82 297.33 122.495 296.694 121.339C296.057 120.182 295.079 119.25 293.894 118.668L174.992 60.5361C174.236 60.1661 173.414 59.9487 172.574 59.8962C171.734 59.8438 170.892 59.9574 170.096 60.2306C169.299 60.5038 168.565 60.9311 167.934 61.4883C167.303 62.0455 166.787 62.7216 166.417 63.4779L166.415 63.4824L121.819 154.755C121.075 156.283 120.967 158.045 121.519 159.653C122.071 161.262 123.238 162.585 124.764 163.334L243.667 221.466C245.195 222.211 246.956 222.319 248.564 221.766C250.172 221.214 251.495 220.047 252.244 218.52L296.84 127.248C297.166 126.584 297.373 125.868 297.453 125.133ZM251.566 218.189C250.906 219.536 249.738 220.566 248.319 221.054C246.901 221.541 245.347 221.446 243.998 220.788L125.096 162.656C123.749 161.996 122.719 160.828 122.232 159.409C121.744 157.989 121.84 156.435 122.497 155.086L167.093 63.8138C167.753 62.4665 168.921 61.4361 170.34 60.9488C171.758 60.4615 173.312 60.5569 174.661 61.2141L293.563 119.346C294.91 120.007 295.94 121.175 296.427 122.594C296.914 124.013 296.819 125.568 296.162 126.916L251.566 218.189Z" fill="#3F3D56"/>
<path d="M284.484 129.283L253.344 193.016C253.137 193.441 252.768 193.767 252.321 193.921C251.873 194.075 251.383 194.045 250.957 193.837L142.8 140.958C142.722 140.921 142.648 140.877 142.578 140.827C142.224 140.586 141.968 140.225 141.858 139.81C141.748 139.395 141.791 138.955 141.98 138.569L173.12 74.8364C173.222 74.6257 173.366 74.4373 173.541 74.2821C173.717 74.1268 173.921 74.0077 174.143 73.9314C174.365 73.8552 174.599 73.8234 174.833 73.8379C175.067 73.8523 175.296 73.9127 175.507 74.0155L283.664 126.895C284.09 127.102 284.415 127.471 284.569 127.918C284.723 128.366 284.693 128.857 284.485 129.282L284.484 129.283Z" fill="#E6E6E6"/>
<path d="M189.53 126.047C198.18 126.047 205.193 119.032 205.193 110.378C205.193 101.725 198.18 94.71 189.53 94.71C180.879 94.71 173.866 101.725 173.866 110.378C173.866 119.032 180.879 126.047 189.53 126.047Z" fill="#00ADB5"/>
<path d="M212.464 175.333L143.428 141.581C143.341 141.54 143.258 141.491 143.18 141.435L203.473 100.824C203.844 100.57 204.277 100.418 204.726 100.385C205.175 100.352 205.625 100.439 206.03 100.636C206.435 100.834 206.78 101.136 207.029 101.511C207.279 101.886 207.425 102.32 207.453 102.77L210.815 151.448L210.978 153.778L212.464 175.333Z" fill="#3F3D56"/>
<path opacity="0.2" d="M212.464 175.334L188.894 163.81L208.679 152.655L210.103 151.851L210.815 151.449L210.978 153.779L212.464 175.334Z" fill="black"/>
<path d="M250.903 194.126L191.192 164.934L210.978 153.779L212.402 152.975L238.185 138.437C239.875 137.484 242.296 138.557 242.846 140.38C242.882 140.504 242.91 140.63 242.93 140.757L250.903 194.126Z" fill="#3F3D56"/>
<path d="M66.6681 199.689L73.1625 199.689L76.2527 174.629L66.6665 174.63L66.6681 199.689Z" fill="#FFB8B8"/>
<path d="M65.0112 197.568L77.8019 197.568C78.8723 197.568 79.9328 197.779 80.9218 198.188C81.9107 198.598 82.8093 199.199 83.5663 199.956C84.3232 200.713 84.9236 201.612 85.3332 202.601C85.7429 203.59 85.9537 204.651 85.9537 205.722V205.987L65.0116 205.987L65.0112 197.568Z" fill="#2F2E41"/>
<path d="M16.1851 195.553L22.9142 196.869L31.1934 171.533L21.2624 169.59L16.1851 195.553Z" fill="#FFB8B8"/>
<path d="M14.8985 193.019L28.1503 195.612L28.1509 195.612C29.2599 195.829 30.3153 196.263 31.2569 196.888C32.1985 197.513 33.0078 198.317 33.6386 199.255C34.2694 200.193 34.7093 201.246 34.9332 202.354C35.1571 203.462 35.1607 204.603 34.9437 205.713L34.89 205.987L13.1929 201.742L14.8985 193.019Z" fill="#2F2E41"/>
<path d="M76.1172 113.246C75.8973 112.499 75.5162 111.809 75.0009 111.225C74.4856 110.641 73.8485 110.177 73.1345 109.865C72.4205 109.554 71.647 109.403 70.8684 109.424C70.0899 109.444 69.3253 109.635 68.6284 109.982L55.0905 96.7451L53.2227 106.407L66.3648 117.496C67.0265 118.628 68.0804 119.479 69.3269 119.886C70.5734 120.292 71.9259 120.228 73.128 119.704C74.3301 119.18 75.2983 118.234 75.8493 117.043C76.4002 115.853 76.4955 114.502 76.1172 113.246Z" fill="#FFB8B8"/>
<path d="M25.8901 45.1115C33.0763 45.1115 38.9018 39.2841 38.9018 32.0958C38.9018 24.9074 33.0763 19.0801 25.8901 19.0801C18.7039 19.0801 12.8784 24.9074 12.8784 32.0958C12.8784 39.2841 18.7039 45.1115 25.8901 45.1115Z" fill="#FFB8B8"/>
<path d="M23.1579 45.3107C23.8492 45.6133 25.2649 40.1029 24.6307 39.0008C23.6876 37.3617 23.7434 37.3735 23.1173 36.2891C22.4912 35.2047 22.3511 33.7205 23.1619 32.7663C23.9726 31.8122 25.8489 31.9388 26.2189 33.1351C25.9808 30.8628 28.2277 29.0363 30.4533 28.523C32.6789 28.0097 35.0265 28.3284 37.2644 27.8716C39.8616 27.3415 42.5638 25.1638 41.5276 22.307C41.3497 21.8313 41.0835 21.3936 40.7429 21.0171C39.5457 19.6705 37.871 19.0956 36.2335 18.5396C32.8271 17.3831 29.3275 16.212 25.7324 16.3397C22.7702 16.4946 19.9175 17.5099 17.5233 19.2614C15.129 21.0129 13.2971 23.4246 12.2517 26.2013C12.004 26.8959 11.8121 27.6093 11.6778 28.3345C10.4438 34.9715 14.2968 41.5181 20.5547 44.0455L23.1579 45.3107Z" fill="#2F2E41"/>
<path d="M19.9633 116.812C19.6315 116.611 19.3655 116.317 19.1982 115.967C19.0308 115.618 18.9694 115.226 19.0215 114.842L13.15 85.7478L7.19841 63.4193C6.54503 60.9726 6.74249 58.3764 7.75817 56.0567C8.77384 53.737 10.5475 51.8314 12.7883 50.6527L16.7229 46.9287L25.3064 50.6279L29.3851 54.7763C32.3105 56.2011 34.9055 58.2225 37.0034 60.7105C39.1012 63.1984 40.6554 66.098 41.5662 69.2226L48.108 91.6149L63.2156 114.098C63.4678 114.473 63.5858 114.922 63.5503 115.372C63.5147 115.823 63.3278 116.248 63.0199 116.578C60.9181 118.84 19.9633 116.812 19.9633 116.812Z" fill="#2F2E41"/>
<path d="M59.544 114.744L37.2668 99.3024C34.2305 97.1831 32.0324 94.0668 31.0543 90.4948L24.7924 67.6234C24.5593 66.7855 24.4964 65.9094 24.6076 65.0469C24.7187 64.1843 25.0015 63.3528 25.4393 62.6014C26.034 61.5639 26.9091 60.7152 27.9642 60.1529C29.0194 59.5905 30.2117 59.3373 31.4042 59.4223C32.5967 59.5074 33.7411 59.9271 34.7058 60.6335C35.6706 61.3398 36.4166 62.3041 36.8581 63.4155L46.1447 86.2662L65.9317 105.05C66.1543 105.321 66.3024 105.645 66.3613 105.99C66.4202 106.336 66.3878 106.691 66.2673 107.02L62.4989 113.759C62.3681 114.147 62.119 114.485 61.7866 114.724C61.4542 114.964 61.0552 115.093 60.6455 115.094C60.2511 115.094 59.8664 114.972 59.544 114.744Z" fill="#2F2E41"/>
<path d="M13.2635 191.674C13.0814 191.413 12.9647 191.112 12.9235 190.796C12.8822 190.48 12.9175 190.159 13.0264 189.86L23.3323 152.384L24.0942 115.662L58.7868 113.282L58.9552 113.271L69.4044 132.215C72.6759 138.138 74.6786 144.678 75.2851 151.417L78.7286 189.164C78.7806 189.677 78.6294 190.19 78.3073 190.593C77.9853 190.996 77.5182 191.256 77.0064 191.318L66.5458 192.313C66.0418 192.375 65.5338 192.237 65.1301 191.929C64.7264 191.621 64.459 191.167 64.385 190.665L60.1372 152.306L44.8536 126.475L39.7233 153.67L29.0946 191.226C28.9556 191.601 28.7059 191.925 28.3787 192.154C28.0515 192.384 27.6622 192.508 27.2625 192.512L14.8658 192.517C14.5502 192.518 14.239 192.442 13.9597 192.295C13.6803 192.148 13.4412 191.935 13.2635 191.674Z" fill="#2F2E41"/>
<path d="M278.905 314.931H17.4824C12.8474 314.926 8.40371 313.082 5.12626 309.803C1.84881 306.525 0.0052357 302.08 0 297.443V153.832C0.0052357 149.195 1.84881 144.75 5.12626 141.472C8.40371 138.193 12.8474 136.349 17.4824 136.344H49.5349C53.8839 136.34 58.0774 137.962 61.2931 140.89L96.0521 165.718C98.3183 167.79 101.278 168.937 104.348 168.935H280.528C282.845 168.935 285.14 169.396 287.277 170.29C289.415 171.185 291.353 172.496 292.98 174.147C294.607 175.798 295.889 177.757 296.752 179.908C297.615 182.059 298.042 184.36 298.009 186.678L296.385 297.699C296.299 302.286 294.422 306.658 291.155 309.878C287.889 313.099 283.491 314.912 278.905 314.931Z" fill="white"/>
<path d="M276.582 306.452H19.0288C16.7929 306.45 14.6492 305.56 13.0682 303.978C11.4871 302.397 10.5977 300.253 10.5952 298.016V152.056C10.5977 149.819 11.4871 147.675 13.0682 146.093C14.6492 144.512 16.7929 143.622 19.0288 143.62C21.0065 143.622 22.9026 144.409 24.301 145.808C25.6995 147.206 26.4861 149.103 26.4883 151.081V287.947C26.4907 290.043 27.3242 292.053 28.8059 293.535C30.2877 295.017 32.2967 295.851 34.3922 295.853H275.712C276.911 295.84 278.08 296.229 279.032 296.958C279.984 297.686 280.665 298.713 280.965 299.874C281.302 300.975 281.26 302.157 280.846 303.231C280.433 304.306 279.671 305.211 278.684 305.801C278.057 306.209 277.329 306.435 276.582 306.452Z" fill="#F2F2F2"/>
<path d="M150.149 236.357L149.471 235.678C149.331 235.547 149.248 235.365 149.242 235.172C149.236 234.98 149.306 234.793 149.438 234.652C149.449 234.64 149.46 234.629 149.471 234.618L155.421 228.662C155.486 228.592 155.564 228.536 155.651 228.497C155.738 228.457 155.831 228.436 155.927 228.433C156.022 228.429 156.117 228.445 156.206 228.479C156.295 228.512 156.377 228.563 156.447 228.628C156.458 228.639 156.469 228.65 156.48 228.662L162.43 234.613C162.499 234.68 162.555 234.76 162.593 234.849C162.632 234.938 162.653 235.033 162.654 235.13C162.656 235.227 162.639 235.323 162.603 235.413C162.568 235.503 162.515 235.585 162.448 235.655L162.43 235.673L161.751 236.351C161.684 236.421 161.604 236.476 161.515 236.515C161.427 236.554 161.331 236.574 161.235 236.576C161.138 236.578 161.042 236.56 160.952 236.525C160.862 236.49 160.78 236.437 160.71 236.37L160.692 236.351L157.174 232.642V241.444C157.175 241.54 157.157 241.635 157.121 241.724C157.085 241.813 157.031 241.894 156.964 241.963C156.896 242.031 156.816 242.085 156.728 242.123C156.639 242.16 156.544 242.18 156.448 242.18L156.443 242.18H155.463C155.268 242.18 155.08 242.103 154.942 241.965C154.804 241.827 154.727 241.639 154.727 241.444V232.652L151.209 236.362C151.073 236.502 150.886 236.582 150.691 236.584C150.496 236.587 150.308 236.511 150.168 236.375L150.149 236.357Z" fill="#00ADB5"/>
<path d="M155.94 223.251C158.328 223.251 160.662 223.96 162.648 225.287C164.633 226.614 166.181 228.5 167.094 230.707C168.008 232.914 168.247 235.342 167.782 237.685C167.316 240.027 166.166 242.179 164.477 243.868C162.789 245.557 160.638 246.708 158.296 247.174C155.954 247.64 153.526 247.401 151.32 246.486C149.114 245.572 147.228 244.024 145.901 242.038C144.575 240.052 143.867 237.717 143.867 235.329C143.869 232.126 145.142 229.056 147.406 226.792C149.67 224.528 152.739 223.254 155.94 223.251ZM155.94 221.662C153.238 221.662 150.596 222.463 148.349 223.965C146.103 225.467 144.351 227.601 143.317 230.098C142.283 232.596 142.013 235.344 142.54 237.995C143.067 240.646 144.368 243.081 146.279 244.993C148.19 246.904 150.624 248.206 153.275 248.733C155.925 249.26 158.672 248.99 161.169 247.955C163.665 246.921 165.799 245.169 167.3 242.922C168.802 240.674 169.603 238.032 169.603 235.329C169.603 231.704 168.163 228.228 165.601 225.665C163.039 223.102 159.564 221.662 155.94 221.662Z" fill="#3F3D56"/>
<path d="M278.905 314.931H17.4824C12.8474 314.926 8.40371 313.082 5.12626 309.803C1.84881 306.525 0.0052357 302.08 0 297.443V153.832C0.0052357 149.195 1.84881 144.75 5.12626 141.472C8.40371 138.193 12.8474 136.349 17.4824 136.344H49.5349C53.8839 136.34 58.0774 137.962 61.2931 140.89L96.0521 165.718C98.3183 167.79 101.278 168.937 104.348 168.935H280.528C282.845 168.935 285.14 169.396 287.277 170.29C289.415 171.185 291.353 172.496 292.98 174.147C294.607 175.798 295.889 177.757 296.752 179.908C297.615 182.059 298.042 184.36 298.009 186.678L296.385 297.699C296.299 302.286 294.422 306.658 291.155 309.878C287.889 313.099 283.491 314.912 278.905 314.931ZM17.4824 137.404C13.1283 137.409 8.95396 139.141 5.87515 142.221C2.79634 145.3 1.06449 149.476 1.05954 153.832V297.443C1.06449 301.799 2.79634 305.974 5.87515 309.054C8.95396 312.134 13.1283 313.866 17.4824 313.871H278.905C283.213 313.854 287.344 312.15 290.413 309.125C293.482 306.099 295.245 301.993 295.326 297.683L296.949 186.663C296.981 184.485 296.58 182.323 295.769 180.302C294.958 178.282 293.753 176.442 292.225 174.891C290.697 173.34 288.876 172.109 286.868 171.268C284.86 170.427 282.705 169.994 280.528 169.994H104.348C101.025 169.997 97.8201 168.759 95.3616 166.523L60.6027 141.695C57.5792 138.931 53.6306 137.4 49.5349 137.404H17.4824Z" fill="#3F3D56"/>
<path d="M301.06 317.727H294.565L292.535 292.667L301.061 292.668L301.06 317.727Z" fill="#FFB8B8"/>
<path d="M302.716 324.025L281.774 324.024V323.759C281.774 322.688 281.985 321.628 282.395 320.639C282.804 319.65 283.405 318.751 284.162 317.994C284.919 317.236 285.817 316.636 286.806 316.226C287.795 315.816 288.855 315.605 289.926 315.605L302.717 315.606L302.716 324.025Z" fill="#2F2E41"/>
<path d="M373.638 317.727H367.143L364.054 292.667L373.639 292.668L373.638 317.727Z" fill="#FFB8B8"/>
<path d="M375.295 324.025L354.353 324.024V323.759C354.353 322.688 354.563 321.628 354.973 320.639C355.383 319.65 355.983 318.751 356.74 317.994C357.497 317.236 358.395 316.636 359.384 316.226C360.373 315.816 361.433 315.605 362.504 315.605L375.295 315.606L375.295 324.025Z" fill="#2F2E41"/>
<path d="M352.283 240.259C353.179 239.207 353.684 237.878 353.713 236.497C353.741 235.115 353.29 233.767 352.437 232.68C352.264 232.472 352.074 232.278 351.87 232.101L356.761 214.035L348.608 216.741L345.213 233.482C344.649 234.514 344.4 235.689 344.496 236.861C344.591 238.034 345.028 239.152 345.752 240.079C346.13 240.58 346.616 240.989 347.174 241.276C347.732 241.563 348.347 241.721 348.974 241.738C349.601 241.755 350.224 241.631 350.797 241.375C351.369 241.119 351.877 240.737 352.283 240.259Z" fill="#FFB8B8"/>
<path d="M351.969 229.145C351.867 229.145 351.765 229.137 351.664 229.122L347.415 228.481C347.084 228.424 346.77 228.296 346.495 228.105C346.219 227.914 345.988 227.665 345.819 227.375C345.451 226.759 345.319 226.03 345.446 225.323L350.747 195.709L347.152 176.684C346.459 173.023 348.247 169.325 351.311 168.082C352.221 167.71 353.211 167.58 354.185 167.705C355.159 167.83 356.084 168.205 356.87 168.795C357.718 169.437 358.422 170.251 358.935 171.183C359.448 172.115 359.759 173.144 359.848 174.204L362.393 198.463L362.362 198.568L354.174 227.316C354.056 227.82 353.777 228.271 353.379 228.601C352.98 228.931 352.485 229.122 351.969 229.145Z" fill="#00ADB5"/>
<path d="M350.714 157.598C357.9 157.598 363.726 151.77 363.726 144.582C363.726 137.394 357.9 131.566 350.714 131.566C343.528 131.566 337.703 137.394 337.703 144.582C337.703 151.77 343.528 157.598 350.714 157.598Z" fill="#FFB8B8"/>
<path d="M344.052 205.085C343.728 205.085 343.407 205.025 343.105 204.908L322.539 196.995C321.982 196.783 321.514 196.388 321.209 195.876C320.905 195.363 320.784 194.763 320.864 194.172L321.69 187.976C321.2 185.779 321.245 183.497 321.821 181.321C322.397 179.146 323.488 177.14 325.001 175.474L325.502 174.923L331.586 163.824C331.998 163.072 332.555 162.41 333.225 161.874C333.895 161.338 334.663 160.941 335.487 160.704C336.311 160.467 337.174 160.396 338.026 160.494C338.877 160.592 339.701 160.858 340.45 161.277L351.195 167.283C352.609 168.072 353.677 169.363 354.188 170.9C355.634 175.252 355.527 179.971 353.885 184.252L346.528 203.386C346.333 203.885 345.993 204.314 345.552 204.617C345.11 204.92 344.588 205.083 344.052 205.085Z" fill="#00ADB5"/>
<path d="M290.155 311.574L290.127 311.569C289.776 311.501 289.443 311.364 289.147 311.164C288.85 310.964 288.598 310.706 288.404 310.407C288.21 310.107 288.078 309.77 288.017 309.418C287.956 309.066 287.967 308.706 288.049 308.358L303.809 239.446C306.389 228.521 309.954 217.853 314.459 207.572L321.164 192.28L346.183 203.706L349.755 210.241C352.54 217.52 353.972 225.246 353.98 233.04L379.402 307.566C379.526 307.929 379.57 308.316 379.53 308.698C379.489 309.081 379.366 309.45 379.169 309.78C378.972 310.11 378.706 310.393 378.388 310.61C378.071 310.826 377.71 310.971 377.331 311.035L363.414 310.877C363.283 310.901 363.15 310.912 363.017 310.911C362.489 310.911 361.973 310.753 361.537 310.457C361.1 310.161 360.763 309.74 360.568 309.25L331.508 233.901C331.467 233.801 331.396 233.716 331.305 233.657C331.214 233.598 331.107 233.569 330.999 233.572C330.893 233.574 330.79 233.608 330.704 233.671C330.619 233.733 330.555 233.82 330.52 233.92L302.947 309.645C302.736 310.233 302.322 310.728 301.779 311.039C301.237 311.351 300.602 311.46 299.987 311.346L290.155 311.574Z" fill="#2F2E41"/>
<path d="M309.181 226.83C309.915 226.569 310.582 226.15 311.137 225.603C311.691 225.056 312.119 224.394 312.39 223.663C312.661 222.933 312.768 222.152 312.705 221.375C312.642 220.599 312.409 219.846 312.023 219.169L324.485 204.914L314.737 203.584L304.398 217.325C303.304 218.049 302.514 219.149 302.177 220.416C301.84 221.684 301.979 223.031 302.569 224.203C303.159 225.374 304.157 226.289 305.376 226.773C306.594 227.257 307.948 227.277 309.181 226.83Z" fill="#FFB8B8"/>
<path d="M315.055 216.788C314.622 216.787 314.195 216.681 313.812 216.477L309.426 214.137C309.104 213.966 308.822 213.729 308.595 213.443C308.369 213.157 308.204 212.827 308.111 212.475C308.018 212.122 307.999 211.754 308.055 211.393C308.111 211.033 308.241 210.688 308.436 210.379L324.634 184.849L327.442 165.582C327.587 164.587 327.933 163.631 328.458 162.772C328.984 161.914 329.678 161.172 330.498 160.589C331.319 160.007 332.249 159.598 333.233 159.386C334.216 159.174 335.232 159.163 336.22 159.356C337.207 159.548 338.145 159.939 338.977 160.504C339.81 161.07 340.518 161.798 341.061 162.646C341.603 163.493 341.968 164.442 342.133 165.435C342.299 166.427 342.261 167.443 342.022 168.421L336.223 192.167L317.118 215.805C316.87 216.113 316.555 216.361 316.198 216.531C315.841 216.701 315.451 216.789 315.055 216.788Z" fill="#00ADB5"/>
<path d="M339.002 133.843C340.508 128.906 349.203 126.703 356.431 128.752C363.658 130.8 368.851 136.171 370.059 141.422C372.736 153.05 358.775 162.487 361.305 174.116C362.979 181.81 372.661 189.085 383.566 190.842C371.548 193.357 356.88 191.146 345.735 185.14C338.799 181.402 332.98 175.761 333.068 170.071C333.121 166.626 335.312 163.58 337.991 160.948C340.67 158.316 343.877 155.976 346.336 153.229C348.795 150.482 350.498 147.193 349.781 143.706C349.063 140.218 345.418 136.581 340.513 135.567L339.002 133.843Z" fill="#2F2E41"/>
<path d="M411.47 325H209.628C209.487 325 209.353 324.944 209.253 324.845C209.154 324.745 209.098 324.61 209.098 324.47C209.098 324.329 209.154 324.195 209.253 324.095C209.353 323.996 209.487 323.94 209.628 323.94H411.47C411.611 323.94 411.745 323.996 411.845 324.095C411.944 324.195 412 324.329 412 324.47C412 324.61 411.944 324.745 411.845 324.845C411.745 324.944 411.611 325 411.47 325Z" fill="#CCCCCC"/>
</g>
<defs>
<clipPath id="clip0_628_613">
<rect width="412" height="325" fill="white"/>
</clipPath>
</defs>
</svg>
